<svg width="24" height="24" viewBox="0 0 24 24" fill="none" xmlns="http://www.w3.org/2000/svg">
<path d="M5.00391 9.00256C5.5562 9.00256 6.00391 9.45027 6.00391 10.0026C7.63868 10.0026 9.14255 10.5629 10.3339 11.5021L12.5039 11.5026C13.836 11.5026 15.0329 12.0814 15.8569 13.0013L19.0039 13.0026C20.9962 13.0026 22.7163 14.1678 23.52 15.854C21.1552 18.9746 17.3258 21.0026 13.0039 21.0026C10.2132 21.0026 7.85369 20.3993 5.94303 19.3446C5.8046 19.7281 5.4363 20.0026 5.00391 20.0026H2.00391C1.45163 20.0026 1.00391 19.5548 1.00391 19.0026V10.0026C1.00391 9.45027 1.45163 9.00256 2.00391 9.00256H5.00391ZM6.00492 12.0026L6.00391 17.0237L6.04927 17.057C7.84309 18.3175 10.182 19.0026 13.0039 19.0026C16.0079 19.0026 18.8025 17.8469 20.839 15.8731L20.9719 15.7396L20.8527 15.6392C20.3887 15.2762 19.8195 15.0509 19.2089 15.0095L19.0039 15.0026L16.8922 15.0016C16.9653 15.3235 17.0039 15.6585 17.0039 16.0026V17.0026H8.00391V15.0026L14.7939 15.0016L14.7595 14.9231C14.379 14.1295 13.592 13.5678 12.6683 13.5079L12.5039 13.5026L9.5745 13.5024C8.66726 12.577 7.40315 12.0028 6.00492 12.0026ZM4.00391 11.0026H3.00391V18.0026H4.00391V11.0026ZM13.6503 3.57794L14.0036 3.9317L14.3574 3.57794C15.3337 2.60163 16.9167 2.60163 17.893 3.57794C18.8693 4.55425 18.8693 6.13716 17.893 7.11347L14.0039 11.0026L10.1148 7.11347C9.13851 6.13716 9.13851 4.55425 10.1148 3.57794C11.0911 2.60163 12.674 2.60163 13.6503 3.57794ZM11.529 4.99215C11.3554 5.16572 11.3362 5.43514 11.4704 5.62926L11.5279 5.69819L14.0029 8.17356L16.4788 5.69926C16.6523 5.52569 16.6716 5.25627 16.5366 5.0614L16.4788 4.99215C16.3052 4.81858 16.0358 4.7993 15.8407 4.93444L15.7714 4.99236L14.0023 6.76098L12.235 4.99108L12.1669 4.93429C11.972 4.7993 11.7026 4.81858 11.529 4.99215Z" fill="white"/>
</svg>
