<svg width="32" height="32" viewBox="0 0 32 32" fill="none" xmlns="http://www.w3.org/2000/svg">
<path d="M30 19V23.671C29.5255 23.0826 28.9101 22.6235 28.2108 22.3362C27.5116 22.049 26.7511 21.943 26 22.028V19H30ZM22.758 29C22.1669 28.1181 21.9082 27.0549 22.028 26H12.973C12.991 26.164 13 26.3307 13 26.5C13 27.425 12.72 28.285 12.242 29H22.758ZM8.5 30C9.42826 30 10.3185 29.6313 10.9749 28.9749C11.6313 28.3185 12 27.4283 12 26.5C12 25.5717 11.6313 24.6815 10.9749 24.0251C10.3185 23.3687 9.42826 23 8.5 23C7.57174 23 6.6815 23.3687 6.02513 24.0251C5.36875 24.6815 5 25.5717 5 26.5C5 27.4283 5.36875 28.3185 6.02513 28.9749C6.6815 29.6313 7.57174 30 8.5 30ZM8.5 28C8.10218 28 7.72064 27.842 7.43934 27.5607C7.15804 27.2794 7 26.8978 7 26.5C7 26.1022 7.15804 25.7206 7.43934 25.4393C7.72064 25.158 8.10218 25 8.5 25C8.89782 25 9.27936 25.158 9.56066 25.4393C9.84196 25.7206 10 26.1022 10 26.5C10 26.8978 9.84196 27.2794 9.56066 27.5607C9.27936 27.842 8.89782 28 8.5 28ZM26.5 30C27.4283 30 28.3185 29.6313 28.9749 28.9749C29.6313 28.3185 30 27.4283 30 26.5C30 25.5717 29.6313 24.6815 28.9749 24.0251C28.3185 23.3687 27.4283 23 26.5 23C25.5717 23 24.6815 23.3687 24.0251 24.0251C23.3687 24.6815 23 25.5717 23 26.5C23 27.4283 23.3687 28.3185 24.0251 28.9749C24.6815 29.6313 25.5717 30 26.5 30ZM26.5 28C26.1022 28 25.7206 27.842 25.4393 27.5607C25.158 27.2794 25 26.8978 25 26.5C25 26.1022 25.158 25.7206 25.4393 25.4393C25.7206 25.158 26.1022 25 26.5 25C26.8978 25 27.2794 25.158 27.5607 25.4393C27.842 25.7206 28 26.1022 28 26.5C28 26.8978 27.842 27.2794 27.5607 27.5607C27.2794 27.842 26.8978 28 26.5 28ZM21 24H22.758C22.5497 24.3112 22.3811 24.6471 22.256 25H12.744C12.4972 24.3034 12.0827 23.6784 11.537 23.18C12.3526 23.0604 13.1757 23.0002 14 23H16L17 24H19V22C19 21.45 19.45 21 20 21C21.1247 20.9996 22.234 21.2611 23.24 21.764L21 24ZM4 26H4.027C3.90717 27.0549 4.16588 28.1181 4.757 29H2V27L4 26Z" fill="white"/>
</svg>
